<?xml version="1.0" standalone="no"?><!DOCTYPE svg PUBLIC "-//W3C//DTD SVG 1.1//EN" "http://www.w3.org/Graphics/SVG/1.1/DTD/svg11.dtd"><svg t="1589330753230" class="icon" viewBox="0 0 1024 1024" version="1.1" xmlns="http://www.w3.org/2000/svg" p-id="9272" xmlns:xlink="http://www.w3.org/1999/xlink" width="200" height="200"><defs><style type="text/css"></style></defs><path d="M994.462064 989.660737l-116.70084 0 0-35.181719c0-80.566778-21.484932-142.748316-63.857293-184.818491-53.999635-53.612746-121.872333-53.738657-124.553085-53.738657L603.342439 715.92187l0-54.798596c54.942821-22.766931 89.680419-60.66832 110.84714-93.533284 33.041239-51.302859 40.492859-100.675851 40.792755-102.752232 0.119043-0.814985 0.178564-1.639127 0.178564-2.46327l0-3.67659c12.059949-2.97378 22.551739-9.196055 30.882444-18.419581 24.30762-26.915114 22.89742-69.379047 21.162143-86.386139-1.320917-12.943613-7.179195-23.806266-16.938414-31.413558-10.674932-8.321548-24.154237-11.22665-35.106173-12.034767l0-32.8787L755.160899 163.677845c0-54.004214-22.336546-90.108515-68.287058-110.373259-8.145273-3.591887-12.117181-8.623734-12.884091-16.320307-0.709678-7.108227 1.607078-13.577745 1.604788-13.577745 2.957755-7.591266 0.173986-16.215-6.659528-20.644765-6.838092-4.432054-15.844136-3.445373-21.565057 2.353384-24.525102 24.873073-49.013574 25.326351-102.102075 23.98712-34.584216-0.876796-77.638784-1.964206-134.339775 6.146728-78.179055 11.183153-112.859421 59.505364-128.186179 98.072935-15.308443 38.517206-14.406465 74.509333-14.188983 79.614436l0 97.496035c-10.974828 0.794382-24.515944 3.690326-35.234373 12.046213-9.761508 7.607291-15.617497 18.467656-16.936124 31.415847-1.735277 17.007092-3.145476 59.471025 21.162143 86.38385 8.424566 9.326544 19.06058 15.57629 31.289936 18.508863l0 3.587308c0 0.824142 0.059521 1.648285 0.178564 2.46327 0.299896 2.076381 7.753806 51.449373 40.792755 102.752232 21.166722 32.862675 55.90432 70.766353 110.84714 93.533284l0 54.798596-85.889364 0c-2.898234-0.018314-70.670203 0.116753-124.676706 53.738657-42.372361 42.070176-63.857293 104.254002-63.857293 184.818491L146.229619 989.660737 29.537936 989.660737c-9.484504 0-17.169631 7.687416-17.169631 17.169631 0 9.482215 7.685127 17.169631 17.169631 17.169631l964.926418 0c9.484504 0 17.169631-7.687416 17.169631-17.169631C1011.631696 997.348153 1003.946569 989.660737 994.462064 989.660737zM689.476757 750.261132c0.004579 0 0.011446 0 0.020604 0 1.352967 0 56.561344 0.425807 100.213415 43.766535 35.641866 35.387755 53.713475 89.371365 53.713475 160.45135L843.424251 989.660737 571.246675 989.660737c-0.048075-1.227056-0.222061-2.465559-0.547139-3.701773l-32.961114-125.022388 23.620834 7.703441c1.749013 0.570032 3.543812 0.847035 5.320296 0.847035 4.896779 0 9.663069-2.099274 12.980241-5.929246l17.902202-20.672236 31.113661-19.017084c6.016239-3.67888 9.173162-10.656618 7.96213-17.602306l-9.777533-56.002759L689.476757 750.263422zM430.025312 773.16771c12.490335 25.335508 36.381304 44.066431 64.933257 49.473721l-30.099509 9.816451-12.18586-14.069941c-1.156089-1.336942-2.515923-2.486163-4.024562-3.408744l-23.421667-14.317183L430.025312 773.16771zM595.442119 769.967291l5.359214 30.694722-23.421667 14.317183c-1.508638 0.922582-2.868473 2.071802-4.024562 3.408744l-12.18586 14.069941-30.82979-10.052247C559.49349 816.435181 583.611099 796.516119 595.442119 769.967291zM536.163395 989.660737l-46.151969 0 23.075985-87.521624L536.163395 989.660737zM773.047076 357.376469c2.039752 20.008344-0.167118 46.24583-12.485756 59.885385-1.650574 1.826849-3.45453 3.333198-5.398132 4.596883l0-76.910792c5.322586 0.613528 10.647461 1.98252 14.037891 4.644958C770.840206 350.884059 772.580062 352.816215 773.047076 357.376469zM314.654546 146.00686c17.416874-43.828346 51.447084-69.653761 101.140575-76.761988 53.843964-7.703441 95.300612-6.654949 128.607407-5.810203 38.823971 0.982103 69.768225 1.765038 97.67231-12.178992 4.09324 13.236641 13.444966 25.754447 30.944254 33.471624 33.508253 14.777329 47.804832 38.389007 47.804832 78.952833l0 95.966793c-30.197948-2.648702-52.655826-12.552145-66.828784-29.598155-25.575883-30.756533-17.485553-76.317867-17.410006-76.718492 1.497192-7.769831-2.511345-15.555686-9.704276-18.854545-7.192931-3.298859-15.706779-1.249949-20.619583 4.954011-31.095347 39.297852-75.4777 54.212539-131.903976 44.309095-44.441874-7.795013-79.909754-28.554242-80.246279-28.75112-4.567122-2.715091-10.127793-3.163791-15.068069-1.220188-4.940275 1.945892-8.703858 6.068892-10.191893 11.167128-15.104697 51.776741-46.000877 72.288727-65.954277 80.326404L302.896782 212.535748c0-0.322789-0.009157-0.645578-0.027471-0.966078C302.848707 211.256038 301.248498 179.739462 314.654546 146.00686zM263.031187 417.261854c-12.318638-13.639555-14.525508-39.877041-12.485756-59.883096 0.467014-4.562543 2.20687-6.496989 3.848287-7.785856 3.475133-2.731116 8.98773-4.106976 14.445383-4.695322l0 77.215266C266.73296 420.803377 264.793936 419.214614 263.031187 417.261854zM339.36279 550.054073c-26.86475-41.232298-34.950502-82.052524-36.189004-89.085205l0-179.605791c23.513238-6.654949 67.490387-26.880775 91.901024-87.313299 16.391275 7.64392 42.303683 17.934252 72.316198 23.327806 52.820654 9.491372 98.677306 0.370864 134.850285-26.427497 2.490741 19.12468 9.196055 41.493276 25.122605 60.780495 20.775254 25.154655 52.165919 39.380267 93.457738 42.395254l0 39.004824 0 127.833629c-1.254528 7.112806-9.347147 47.894115-36.189004 89.087494-38.480578 59.058954-96.026315 91.537028-171.041579 96.536825l-3.188973 0C435.391394 641.591101 377.843368 609.113026 339.36279 550.054073zM508.730902 680.895821c0.370864 0.022893 0.739439 0.036629 1.110303 0.036629l4.315301 0c0.370864 0 0.739439-0.011446 1.110303-0.036629 19.458916-1.261396 37.313043-4.193969 53.736368-8.397094l0 59.986114c-0.004579 0.148803-0.022893 0.293028-0.022893 0.444121 0 31.425004-25.566726 56.994019-56.994019 56.994019-31.425004 0-56.99173-25.569015-56.99173-56.994019l0-60.430235C471.417859 676.701853 489.271987 679.634426 508.730902 680.895821zM180.57346 954.479018c0-201.862212 147.720641-204.217885 154.071115-204.217885l64.521186 0-9.775243 56.002759c-1.211031 6.945688 1.945892 13.923426 7.959841 17.602306l31.113661 19.017084 17.902202 20.672236c3.317173 3.829972 8.081173 5.929246 12.980241 5.929246 1.776485 0 3.573573-0.277003 5.320296-0.847035l23.787952-7.756095-32.977139 125.077331c-0.327368 1.236213-0.499064 2.474716-0.547139 3.699483L180.57346 989.658448 180.57346 954.479018z" p-id="9273" fill="#333333"></path><path d="M390.125378 319.639908m-20.493672 0a8.952 8.952 0 1 0 40.987344 0 8.952 8.952 0 1 0-40.987344 0Z" p-id="9274" fill="#333333"></path><path d="M633.874622 319.642198m-20.491383 0a8.951 8.951 0 1 0 40.982766 0 8.951 8.951 0 1 0-40.982766 0Z" p-id="9275" fill="#333333"></path><path d="M618.437979 531.950413c5.954428-7.382942 4.79605-18.190652-2.586891-24.142791-7.382942-5.956717-18.192941-4.793761-24.142791 2.584602-0.183143 0.228928-20.807304 22.753196-75.479989 22.753196-56.794851 0-84.481454-23.568181-85.834421-24.751741-7.007499-6.293242-17.796895-5.768996-24.156527 1.208742-6.389392 7.007499-5.888039 17.867863 1.11946 24.254966 1.50406 1.373571 37.697643 33.627295 108.871488 33.627295C587.713496 567.484683 615.503117 535.585797 618.437979 531.950413z" p-id="9276" fill="#333333"></path><path d="M507.572524 440.349285l8.852662 0c22.721146 0 41.207115-18.48597 41.207115-41.207115 0-9.482215-7.685127-17.169631-17.169631-17.169631-9.484504 0-17.169631 7.687416-17.169631 17.169631 0 3.786476-3.081377 6.867853-6.867853 6.867853l-8.852662 0c-3.786476 0-6.867853-3.081377-6.867853-6.867853 0-9.482215-7.685127-17.169631-17.169631-17.169631-9.484504 0-17.169631 7.687416-17.169631 17.169631C466.365409 421.865605 484.851379 440.349285 507.572524 440.349285z" p-id="9277" fill="#333333"></path></svg>