<?xml version="1.0" standalone="no"?>
<!DOCTYPE svg PUBLIC "-//W3C//DTD SVG 20010904//EN"
 "http://www.w3.org/TR/2001/REC-SVG-20010904/DTD/svg10.dtd">
<svg version="1.0" 
    xmlns="http://www.w3.org/2000/svg" width="1280.000000pt" height="914.000000pt" viewBox="0 0 1280.000000 914.000000" preserveAspectRatio="xMidYMid meet">
    <metadata>
Created by potrace 1.15, written by Peter Selinger 2001-2017
    </metadata>
    <g transform="translate(0.000000,914.000000) scale(0.100000,-0.100000)" fill="#009688" stroke="none">
        <path d="M1490 9130 c-543 -56 -1001 -279 -1253 -610 -56 -74 -143 -248 -181
-361 -89 -267 -69 -549 60 -827 152 -330 514 -649 889 -784 123 -44 461 -154
775 -252 710 -221 967 -318 1335 -502 297 -149 554 -315 819 -529 119 -97 726
-699 726 -721 0 -21 -587 -591 -710 -690 -273 -217 -527 -378 -845 -534 -332
-162 -621 -270 -1250 -465 -523 -162 -856 -275 -960 -324 -375 -181 -675 -502
-790 -845 -48 -143 -59 -211 -58 -376 0 -134 4 -167 25 -245 78 -278 158 -417
342 -592 115 -110 223 -183 387 -262 334 -162 754 -236 1138 -202 158 14 410
60 531 96 411 123 766 367 970 665 128 188 199 422 187 615 -15 231 -140 544
-284 713 -51 59 -214 186 -320 248 -34 20 -63 39 -63 43 0 3 51 39 113 79 150
99 399 219 832 405 198 85 448 195 555 243 263 119 822 399 1055 529 162 91
193 105 212 96 12 -6 1016 -574 2230 -1263 1215 -689 2271 -1284 2348 -1323
256 -128 522 -211 830 -257 141 -21 590 -18 735 5 289 46 527 116 750 223 77
37 139 71 138 76 -2 4 -1276 755 -2832 1668 -1556 913 -2833 1663 -2838 1668
-7 7 947 571 5099 3016 l612 361 -47 29 c-141 88 -392 187 -597 236 -201 47
-279 55 -555 55 -213 -1 -278 -5 -395 -23 -302 -48 -596 -137 -890 -269 -44
-20 -699 -386 -1455 -813 -756 -427 -1773 -1001 -2259 -1275 l-883 -498 -37
21 c-452 250 -1159 591 -1889 913 -441 195 -536 241 -724 352 l-138 80 38 25
c75 51 194 156 283 250 152 162 235 305 293 504 111 384 -18 783 -358 1105
-130 123 -256 210 -431 298 -225 113 -440 175 -725 211 -146 18 -429 25 -540
14z m437 -596 c374 -55 658 -237 796 -509 107 -212 94 -471 -35 -690 -54 -92
-182 -218 -279 -272 -95 -54 -230 -99 -344 -114 -138 -18 -367 -7 -486 24
-233 61 -416 163 -575 321 -224 224 -302 493 -213 730 19 52 90 170 142 238
35 46 154 137 222 171 98 48 259 94 390 110 79 10 288 5 382 -9z m216 -6349
c277 -48 487 -196 607 -426 165 -316 74 -689 -224 -925 -203 -161 -480 -248
-791 -247 -362 0 -614 104 -793 328 -111 138 -152 243 -152 387 0 109 11 159
61 266 142 307 476 548 854 616 107 19 331 20 438 1z"/>
    </g>
</svg>
