<?xml version="1.0" standalone="no"?><!DOCTYPE svg PUBLIC "-//W3C//DTD SVG 1.1//EN" "http://www.w3.org/Graphics/SVG/1.1/DTD/svg11.dtd"><svg t="1588949332897" class="icon" viewBox="0 0 1030 1024" version="1.1" xmlns="http://www.w3.org/2000/svg" p-id="1160" xmlns:xlink="http://www.w3.org/1999/xlink" width="201.171875" height="200"><defs><style type="text/css"></style></defs><path d="M508.586667 716.8c-105.813333 0-197.973333-85.333333-235.52-218.453333h-6.826667c-34.133333 0-58.026667-44.373333-58.026667-102.4 0-17.066667 3.413333-34.133333 6.826667-47.786667C208.213333 327.68 204.8 307.2 204.8 290.133333 204.8 129.706667 341.333333 0 508.586667 0S819.2 133.12 819.2 290.133333c0 17.066667-3.413333 37.546667-6.826667 58.026667 3.413333 13.653333 6.826667 30.72 6.826667 47.786667 0 58.026667-27.306667 102.4-61.44 102.4-37.546667 126.293333-143.36 218.453333-249.173333 218.453333z m-221.866667-252.586667h6.826667c3.413333 3.413333 10.24 6.826667 10.24 10.24 30.72 122.88 112.64 204.8 204.8 204.8 95.573333 0 194.56-92.16 221.866666-208.213333 0-6.826667 3.413333-10.24 10.24-10.24 3.413333-3.413333 10.24 0 17.066667 0h3.413333c10.24 0 27.306667-27.306667 27.306667-68.266667 0-13.653333-3.413333-30.72-6.826667-40.96V341.333333c0-17.066667 3.413333-34.133333 3.413334-51.2C785.066667 150.186667 658.773333 34.133333 508.586667 34.133333 358.4 34.133333 238.933333 150.186667 238.933333 290.133333c0 17.066667 3.413333 34.133333 6.826667 54.613334v10.24c-3.413333 13.653333-6.826667 27.306667-6.826667 40.96 0 40.96 17.066667 68.266667 27.306667 68.266666H286.72z" fill="#1da57a" p-id="1161"></path><path d="M1006.933333 1024H17.066667c-10.24 0-17.066667-6.826667-17.066667-17.066667v-40.96c0-109.226667 71.68-252.586667 184.32-293.546666l112.64-20.48c6.826667 0 10.24 0 17.066667 6.826666C368.64 716.8 436.906667 750.933333 512 750.933333c71.68 0 143.36-34.133333 197.973333-92.16 3.413333-3.413333 10.24-6.826667 17.066667-6.826666l109.226667 20.48h3.413333c112.64 40.96 191.146667 191.146667 191.146667 300.373333v30.72c-6.826667 13.653333-13.653333 20.48-23.893334 20.48zM34.133333 989.866667h955.733334v-13.653334c0-98.986667-71.68-232.106667-167.253334-266.24l-98.986666-20.48c-61.44 61.44-136.533333 95.573333-215.04 95.573334s-153.6-34.133333-215.04-95.573334l-98.986667 20.48c-95.573333 34.133333-157.013333 160.426667-157.013333 259.413334v20.48zM785.066667 375.466667h-51.2c-3.413333 0-6.826667 0-10.24-3.413334 0 0-30.72-27.306667-37.546667-64.853333-95.573333-6.826667-180.906667-58.026667-218.453333-105.813333-3.413333 6.826667-6.826667 10.24-13.653334 13.653333-30.72 30.72-85.333333 27.306667-116.053333 23.893333h-10.24c-10.24 10.24-20.48 64.853333-20.48 119.466667 0 10.24-6.826667 17.066667-17.066667 17.066667H238.933333c-10.24 0-17.066667-6.826667-17.066666-17.066667s6.826667-17.066667 17.066666-17.066667h34.133334c3.413333-92.16 20.48-136.533333 51.2-136.533333h17.066666c27.306667 3.413333 68.266667 3.413333 88.746667-13.653333 10.24-6.826667 13.653333-20.48 13.653333-37.546667 0-10.24 6.826667-17.066667 17.066667-17.066667s17.066667 6.826667 17.066667 17.066667c0 23.893333 95.573333 119.466667 221.866666 119.466667 10.24 0 17.066667 6.826667 17.066667 17.066666 0 20.48 17.066667 40.96 23.893333 51.2H785.066667c10.24 0 17.066667 6.826667 17.066666 17.066667s-6.826667 17.066667-17.066666 17.066667zM426.666667 409.6h-34.133334c-10.24 0-17.066667-6.826667-17.066666-17.066667s6.826667-17.066667 17.066666-17.066666h34.133334c10.24 0 17.066667 6.826667 17.066666 17.066666s-6.826667 17.066667-17.066666 17.066667zM631.466667 409.6h-34.133334c-10.24 0-17.066667-6.826667-17.066666-17.066667s6.826667-17.066667 17.066666-17.066666h34.133334c10.24 0 17.066667 6.826667 17.066666 17.066666s-6.826667 17.066667-17.066666 17.066667z" fill="#1da57a" p-id="1162"></path></svg>